<svg version="1.1" xmlns="http://www.w3.org/2000/svg" viewBox="0 0 1923 1229.3793923095404" width="1923" height="1229.3793923095404">
  <!-- svg-source:excalidraw -->
  
  <defs>
    <style>
      @font-face {
        font-family: "Virgil";
        src: url("https://excalidraw.com/Virgil.woff2");
      }
      @font-face {
        font-family: "Cascadia";
        src: url("https://excalidraw.com/Cascadia.woff2");
      }
    </style>
  </defs>
  <rect x="0" y="0" width="1923" height="1229.3793923095404" fill="#ffffff"></rect><g transform="translate(10 639.9925860153511) rotate(0 54 13)"><text x="0" y="18" font-family="Virgil, Segoe UI Emoji" font-size="20px" fill="#000000" text-anchor="start" style="white-space: pre;" direction="ltr">Web Server</text></g><g stroke-linecap="round"><g transform="translate(176.976527439598 13.628622850123861) rotate(0 -0.908396697007106 501.0617866447195)"><path d="M0.29 -0.21 C0 167.09, -1.19 836.34, -1.44 1003.49 M-1.02 -1.36 C-1.44 165.65, -2.02 834.37, -2.1 1001.95" stroke="#000000" stroke-width="1" fill="none"></path></g></g><g stroke-linecap="round"><g transform="translate(186.22401033499375 10.99629300767549) rotate(0 -0.7104979956480406 502.82652479234156)"><path d="M0.46 0.03 C0.06 167.68, -0.99 837.77, -1.38 1005.42 M-0.75 -1 C-1.33 166.84, -1.6 838.61, -1.88 1006.65" stroke="#000000" stroke-width="1" fill="none"></path></g></g><g stroke-linecap="round" transform="translate(286 628.9925860153511) rotate(0 102 32)"><path d="M-0.08 0.84 C63.78 -0.76, 127.74 0.36, 203.19 -0.25 M0.64 0.4 C64.66 0.55, 130.92 -0.86, 203.69 0.62 M203.4 1.49 C202.72 15.79, 203.42 35.01, 203.67 62.18 M204.33 -0.19 C204.36 25.25, 204.64 49.51, 204.07 63.35 M205.04 62.6 C153.08 64.38, 100.67 64.7, 0.53 62.88 M204.41 64.32 C141.64 62.29, 80.26 63.77, -0.08 63.58 M1.61 64.21 C-2.16 39.43, 0.4 15.99, -0.31 0.68 M-0.73 63.31 C-0.39 46.06, 0.38 29.78, -0.41 -0.67" stroke="#000000" stroke-width="1" fill="none"></path></g><g transform="translate(314 648.9925860153511) rotate(0 75 13)"><text x="0" y="18" font-family="Virgil, Segoe UI Emoji" font-size="20px" fill="#000000" text-anchor="start" style="white-space: pre;" direction="ltr">RequestHandler</text></g><g stroke-linecap="round"><g transform="translate(133.48608983568852 655.8738818532879) rotate(0 70.01513309292497 0.6554612774967268)"><path d="M-0.51 -0.56 C23.07 -0.47, 117.03 -0.36, 140.54 -0.06 M1.42 1.76 C24.97 2.07, 116.76 1.66, 139.87 1.26" stroke="#000000" stroke-width="1" fill="none"></path></g><g transform="translate(133.48608983568852 655.8738818532879) rotate(0 70.01513309292497 0.6554612774967268)"><path d="M110.85 12.65 C117.38 10.47, 125.84 5.73, 140.93 1.59 M111.2 11.56 C120.13 7.35, 128.81 4.45, 139.95 2.23" stroke="#000000" stroke-width="1" fill="none"></path></g><g transform="translate(133.48608983568852 655.8738818532879) rotate(0 70.01513309292497 0.6554612774967268)"><path d="M110.65 -7.87 C117.13 -5.5, 125.63 -5.67, 140.93 1.59 M111 -8.96 C119.98 -6.61, 128.73 -2.95, 139.95 2.23" stroke="#000000" stroke-width="1" fill="none"></path></g></g><g stroke-linecap="round"><g transform="translate(498.54687145568425 668.9108996122495) rotate(0 63.97924950253207 1.19621338503282)"><path d="M0 0.64 C21.61 1.19, 107.91 2.28, 129.41 2.46 M-1.45 -0.07 C20 0.25, 106.79 0.99, 128.35 0.94" stroke="#000000" stroke-width="1" fill="none"></path></g><g transform="translate(498.54687145568425 668.9108996122495) rotate(0 63.97924950253207 1.19621338503282)"><path d="M101.19 10.74 C110.04 7.2, 116.74 6.38, 129.17 -0.17 M99.99 10.82 C109.5 7.83, 121.02 4.44, 128.47 1.38" stroke="#000000" stroke-width="1" fill="none"></path></g><g transform="translate(498.54687145568425 668.9108996122495) rotate(0 63.97924950253207 1.19621338503282)"><path d="M101.27 -9.78 C109.95 -7.55, 116.63 -2.6, 129.17 -0.17 M100.07 -9.7 C109.68 -5.21, 121.17 -1.13, 128.47 1.38" stroke="#000000" stroke-width="1" fill="none"></path></g></g><g stroke-linecap="round"><g transform="translate(959.1964229840039 654.2591549999966) rotate(0 -78.30965703461311 8.288924199293746)"><path d="M0.26 -0.28 C-25.51 2.5, -129.79 14.17, -155.78 17.09 M-1.06 -1.47 C-26.92 1.38, -130.97 14.79, -156.88 18.05" stroke="#000000" stroke-width="1" fill="none"></path></g><g transform="translate(959.1964229840039 654.2591549999966) rotate(0 -78.30965703461311 8.288924199293746)"><path d="M-130.67 3.83 C-137.44 6.89, -142.63 10.02, -155.83 17.56 M-130.95 3.68 C-136.89 7.37, -143.83 10.9, -157.3 17.44" stroke="#000000" stroke-width="1" fill="none"></path></g><g transform="translate(959.1964229840039 654.2591549999966) rotate(0 -78.30965703461311 8.288924199293746)"><path d="M-128.08 24.18 C-135.44 23.11, -141.17 22.09, -155.83 17.56 M-128.36 24.04 C-135.06 22.16, -142.71 20.14, -157.3 17.44" stroke="#000000" stroke-width="1" fill="none"></path></g></g><g transform="translate(653 663.9925860153511) rotate(0 69.5 13)"><text x="0" y="18" font-family="Virgil, Segoe UI Emoji" font-size="20px" fill="#000000" text-anchor="start" style="white-space: pre;" direction="ltr">RequestQueue</text></g><g stroke-linecap="round" transform="translate(637 655.9925860153511) rotate(0 82 21.5)"><path d="M-0.79 0.78 C63.69 0.92, 123.97 0.7, 162.9 -1.85 M0.8 -0.75 C41.35 -0.19, 81.05 0.45, 163.21 0.68 M162.97 -0.49 C163.7 12.56, 162.85 20.77, 163.29 44.89 M164.98 0.88 C164.25 13.31, 163.9 29.02, 163.29 42.2 M163.11 42.94 C105.25 43.49, 43.37 45.11, 0.46 42.45 M163.33 43.52 C110.36 43.09, 54.82 44.4, -0.17 42.9 M-0.33 43.36 C-0.02 30.77, -0.65 14.45, 0.58 -0.7 M0.67 42.21 C-0.53 29.6, -0.86 16.49, 0.38 -0.27" stroke="#000000" stroke-width="1" fill="none"></path></g><g transform="translate(979 631.9925860153511) rotate(0 87.5 13)"><text x="0" y="18" font-family="Virgil, Segoe UI Emoji" font-size="20px" fill="#000000" text-anchor="start" style="white-space: pre;" direction="ltr">RequestProcessor</text></g><g stroke-linecap="round" transform="translate(971 626.9925860153511) rotate(0 97.5 19)"><path d="M1.04 0.96 C70.61 -0.58, 145.29 0.97, 194.81 0.41 M0.18 0 C59.82 0, 117.59 0.61, 194.65 0.18 M193.42 -0.37 C195.64 13.44, 196.75 29.68, 194.45 38.8 M194.28 0.5 C194.91 12.36, 195.41 24.16, 195.53 38.35 M193.21 37.41 C126.28 41.56, 56.97 40.87, -1.31 37.27 M194.98 38.92 C126.85 36.12, 58.85 36.57, 0.84 37.29 M-0.33 38 C0.07 30.19, 0.85 20.34, 1.17 -0.57 M-0.06 38.2 C0.47 30.47, 0.33 21.8, -0.15 0.9" stroke="#000000" stroke-width="1" fill="none"></path></g><g stroke-linecap="round"><g transform="translate(970.2217121377353 617.4655416911313) rotate(0 -100.35717564809295 -22.41626353021863)"><path d="M-0.41 0.4 C-33.85 -6.78, -167.91 -36.1, -201.48 -43.72 M1.57 -0.44 C-31.92 -7.87, -168.24 -37.92, -202.28 -45.23" stroke="#000000" stroke-width="1" fill="none"></path></g><g transform="translate(970.2217121377353 617.4655416911313) rotate(0 -100.35717564809295 -22.41626353021863)"><path d="M-171.89 -48.77 C-177.36 -48.62, -186.85 -47.08, -201.84 -44.87 M-172.63 -48.78 C-182.61 -47.24, -191.88 -47.17, -203.18 -44.56" stroke="#000000" stroke-width="1" fill="none"></path></g><g transform="translate(970.2217121377353 617.4655416911313) rotate(0 -100.35717564809295 -22.41626353021863)"><path d="M-176.26 -28.72 C-180.63 -33.11, -189.13 -36.11, -201.84 -44.87 M-177 -28.73 C-185.51 -33.95, -193.31 -40.62, -203.18 -44.56" stroke="#000000" stroke-width="1" fill="none"></path></g></g><g transform="translate(356 396.9925860153511) rotate(0 77.5 13)"><text x="0" y="18" font-family="Virgil, Segoe UI Emoji" font-size="20px" fill="#000000" text-anchor="start" style="white-space: pre;" direction="ltr">RequestFactory</text></g><g stroke-linecap="round" transform="translate(340 372.9925860153511) rotate(0 91.5 32.5)"><path d="M0.72 -0.81 C65.43 2.01, 128.57 2.41, 181.82 -0.43 M0.23 -0.85 C49.22 0.52, 99.35 0.23, 182.39 0.97 M184.93 1.19 C185.35 19.57, 185.06 36.07, 184.04 64.3 M183.73 0.37 C182.31 16.51, 183.56 35.07, 182.95 64.19 M184.34 65.64 C147.01 64.06, 111.02 63.82, -0.99 63.18 M182.97 65.07 C142.83 63.95, 104.27 64.33, -0.77 65.65 M-0.95 64.03 C-0.78 45.01, 1.91 24.56, -1.56 -0.69 M-0.03 65.49 C-0.07 43.43, 0.57 22.29, -0.08 0.58" stroke="#000000" stroke-width="1" fill="none"></path></g><g stroke-linecap="round"><g transform="translate(388.44672366180237 625.9925860153512) rotate(0 18.58963506905917 -90.00419945776466)"><path d="M1.18 0.52 C7.21 -29.31, 30.76 -149.05, 36.83 -178.96 M0.35 -0.25 C6.13 -30.4, 29.58 -150.45, 35.7 -180.53" stroke="#000000" stroke-width="1" fill="none"></path></g><g transform="translate(388.44672366180237 625.9925860153512) rotate(0 18.58963506905917 -90.00419945776466)"><path d="M41.14 -151.46 C40.39 -160.58, 38.81 -173.34, 34.14 -180.68 M41.18 -150.7 C38.43 -160.76, 38.12 -171.05, 36.49 -180.73" stroke="#000000" stroke-width="1" fill="none"></path></g><g transform="translate(388.44672366180237 625.9925860153512) rotate(0 18.58963506905917 -90.00419945776466)"><path d="M21.01 -155.46 C27.39 -163.37, 32.94 -174.7, 34.14 -180.68 M21.06 -154.7 C25.37 -163.19, 32.16 -172.07, 36.49 -180.73" stroke="#000000" stroke-width="1" fill="none"></path></g></g><g transform="translate(683 537.9925860153511) rotate(0 40 13)"><text x="0" y="18" font-family="Virgil, Segoe UI Emoji" font-size="20px" fill="#000000" text-anchor="start" style="white-space: pre;" direction="ltr">Request</text></g><g stroke-linecap="round" transform="translate(670 524.9925860153511) rotate(0 54 23)"><path d="M-1.82 -0.11 C29.84 -1.67, 61.66 -0.5, 107 0.85 M-0.7 -0.4 C30.32 -0.17, 62.13 1.1, 108.65 0.1 M106.1 0.22 C107.66 11.02, 108.93 21.54, 106.81 44.26 M107.28 -0.95 C107.57 10.61, 108.86 21.61, 108.3 45.82 M108.62 44.78 C81.96 46.67, 52.8 46.99, -1.03 46.14 M108.62 45.46 C66.13 46.71, 26.56 46.24, 0.9 46.54 M-1.88 46.76 C0.72 30.49, -0.07 17.02, -1.86 -0.39 M0.79 46.9 C0.16 34.31, 0.28 22.91, 0.75 -0.33" stroke="#000000" stroke-width="1" fill="none"></path></g><g stroke-linecap="round"><g transform="translate(493.18329617854783 626.5704742426117) rotate(0 87.04136387572902 -26.155567247805152)"><path d="M-0.42 -1.09 C28.58 -9.55, 145.4 -42.89, 174.5 -51.4 M1.56 0.96 C30.45 -7.81, 145.4 -44.61, 174.11 -53.27" stroke="#000000" stroke-width="1" fill="none"></path></g><g transform="translate(493.18329617854783 626.5704742426117) rotate(0 87.04136387572902 -26.155567247805152)"><path d="M148.44 -33.3 C159.36 -39.95, 166.26 -45.91, 174.4 -52.59 M149.66 -35.19 C157.65 -40.14, 163.53 -46.14, 173.85 -53.55" stroke="#000000" stroke-width="1" fill="none"></path></g><g transform="translate(493.18329617854783 626.5704742426117) rotate(0 87.04136387572902 -26.155567247805152)"><path d="M142.33 -52.89 C155.24 -52.8, 164.24 -52.05, 174.4 -52.59 M143.54 -54.78 C153.3 -54.29, 160.88 -54.85, 173.85 -53.55" stroke="#000000" stroke-width="1" fill="none"></path></g></g><g stroke-linecap="round"><g transform="translate(739.2245982424236 520.9925860153511) rotate(0 -14.636476222806095 -48.65550971625373)"><path d="M0.2 0.94 C-4.33 -15.3, -23.69 -80.08, -28.27 -96.64 M-1.16 0.38 C-5.79 -16.24, -25.03 -81.93, -29.47 -98.25" stroke="#000000" stroke-width="1" fill="none"></path></g><g transform="translate(739.2245982424236 520.9925860153511) rotate(0 -14.636476222806095 -48.65550971625373)"><path d="M-10.34 -74.73 C-14.07 -78.12, -20.72 -84.93, -27.59 -99.14 M-11.3 -73.23 C-16.4 -79.62, -19.13 -83.9, -29.1 -97.34" stroke="#000000" stroke-width="1" fill="none"></path></g><g transform="translate(739.2245982424236 520.9925860153511) rotate(0 -14.636476222806095 -48.65550971625373)"><path d="M-30.08 -69.13 C-29.75 -73.71, -32.3 -81.68, -27.59 -99.14 M-31.04 -67.63 C-31.86 -75.21, -30.34 -80.71, -29.1 -97.34" stroke="#000000" stroke-width="1" fill="none"></path></g></g><g transform="translate(626 371.9925860153511) rotate(0 84 13)"><text x="0" y="18" font-family="Virgil, Segoe UI Emoji" font-size="20px" fill="#000000" text-anchor="start" style="white-space: pre;" direction="ltr">RequestExecutor</text></g><g stroke-linecap="round" transform="translate(607 355.9925860153511) rotate(0 102 29.5)"><path d="M0.66 1.63 C51.4 -0.43, 104.25 -1.01, 203.39 -0.27 M0.18 -0.02 C44.55 -0.42, 89.82 0.92, 204.57 -0.56 M203.48 -0.38 C202.81 21.4, 204.68 47.17, 202.35 59.1 M203.62 -0.15 C202.98 19.49, 202.89 38.27, 204.16 59.25 M204.68 60.54 C162.92 59.47, 121.22 59.53, -1.49 57.74 M204 59.79 C135.23 60.49, 65 59.06, 0.77 59.77 M-1.06 57.77 C2.49 36.8, -0.92 16.62, -0.43 1.08 M0.66 59.85 C1.14 44.38, 0.69 31.04, -0.47 0.14" stroke="#000000" stroke-width="1" fill="none"></path></g><g stroke-linecap="round"><g transform="translate(526 443.9925860153511) rotate(0 71.15671632319692 47.927354147136214)"><path d="M0.12 -1.04 C24.18 14.99, 119.65 79.27, 143.58 95.58 M-1.27 1.03 C22.74 17.28, 118.84 81.26, 142.94 96.89" stroke="#000000" stroke-width="1" fill="none"></path></g><g transform="translate(526 443.9925860153511) rotate(0 71.15671632319692 47.927354147136214)"><path d="M112.02 90.93 C119.95 92.78, 128.9 92.64, 141.69 98.75 M114.73 89.26 C120.75 90.81, 127.56 92.61, 143.74 96.87" stroke="#000000" stroke-width="1" fill="none"></path></g><g transform="translate(526 443.9925860153511) rotate(0 71.15671632319692 47.927354147136214)"><path d="M123.31 73.79 C128.47 79.73, 134.74 83.65, 141.69 98.75 M126.02 72.12 C129.51 77.82, 133.62 83.72, 143.74 96.87" stroke="#000000" stroke-width="1" fill="none"></path></g></g><g stroke-linecap="round"><g transform="translate(530 404.9925860153511) rotate(0 36.79881171397864 -6.692715015485888)"><path d="M-0.77 -0.95 C11.69 -3.07, 62 -10.74, 74.37 -12.97 M1.03 1.17 C13.39 -1.25, 61.73 -12.16, 73.61 -14.56" stroke="#000000" stroke-width="1" fill="none"></path></g><g transform="translate(530 404.9925860153511) rotate(0 36.79881171397864 -6.692715015485888)"><path d="M46.63 2.01 C56.79 -3.72, 61.36 -5.82, 75.35 -13.32 M47.92 1.1 C56.79 -4.86, 65.82 -9.18, 73.24 -15.11" stroke="#000000" stroke-width="1" fill="none"></path></g><g transform="translate(530 404.9925860153511) rotate(0 36.79881171397864 -6.692715015485888)"><path d="M42.32 -18.05 C53.6 -18.35, 59.34 -15.05, 75.35 -13.32 M43.61 -18.96 C53.82 -18.39, 64.26 -16.16, 73.24 -15.11" stroke="#000000" stroke-width="1" fill="none"></path></g></g><g transform="translate(630 779.9925860153511) rotate(0 84 13)"><text x="0" y="18" font-family="Virgil, Segoe UI Emoji" font-size="20px" fill="#000000" text-anchor="start" style="white-space: pre;" direction="ltr">RequestOptimizer</text></g><g stroke-linecap="round" transform="translate(623 765.9925860153511) rotate(0 91.5 28)"><path d="M-1.59 0.07 C35.73 -0.49, 74.14 -0.56, 182.8 1.05 M0.58 0.17 C54.51 -2.69, 110.02 -1.37, 182.41 -0.53 M184.68 1.74 C185.43 12.96, 184.92 28.53, 182.64 54.5 M182.9 0.86 C183.3 17.99, 182.74 35.2, 183.67 56.87 M181.2 57.26 C116.41 56.1, 46.84 52.78, 0.14 57.22 M183.08 55.88 C131.64 56.45, 81.18 54.81, 0.38 55.11 M-0.56 56.54 C0.16 42.24, -1.36 28.39, 0.19 0.95 M-0.85 56.33 C0.27 37.92, 0.66 18.7, 0.15 -0.19" stroke="#000000" stroke-width="1" fill="none"></path></g><g stroke-linecap="round"><g transform="translate(725 703.9925860153511) rotate(0 1.272242466732905 29.727980937287214)"><path d="M-0.25 0.54 C0.2 10.1, 2.28 48.56, 2.79 58.09 M1.82 -0.22 C2.09 9.49, 1.7 49.83, 1.74 59.67" stroke="#000000" stroke-width="1" fill="none"></path></g><g transform="translate(725 703.9925860153511) rotate(0 1.272242466732905 29.727980937287214)"><path d="M-7.2 32.01 C-4.77 40.52, -2.41 50.67, 2.51 57.92 M-8.92 33.18 C-5.3 41.93, -1.84 50.53, 0.83 58.89" stroke="#000000" stroke-width="1" fill="none"></path></g><g transform="translate(725 703.9925860153511) rotate(0 1.272242466732905 29.727980937287214)"><path d="M12.67 32.08 C9 40.53, 5.27 50.66, 2.51 57.92 M10.94 33.25 C7.85 41.84, 4.59 50.42, 0.83 58.89" stroke="#000000" stroke-width="1" fill="none"></path></g></g><g stroke-linecap="round" transform="translate(899 354.9925860153511) rotate(0 75 28)"><path d="M-1.56 -1.84 C59.18 -0.74, 119.42 2.05, 148.17 1.31 M0.78 0.11 C49.88 -0.21, 100.99 0.42, 150.68 -0.48 M150.45 -1.89 C148.54 12.61, 150.92 26.09, 150.93 57.48 M150.98 0.96 C149.2 20.35, 149.46 41.24, 149.54 55.51 M149.68 55.42 C111.85 57.62, 74.85 53.86, -0.87 56.56 M149.77 56.3 C98.2 56.47, 48.09 56.58, 0.25 55.59 M0.88 56.94 C-1.07 43.93, -0.08 27.34, 0.14 -0.94 M0.5 56.06 C0.14 42.93, -1 29.6, 0.64 -0.19" stroke="#000000" stroke-width="1" fill="none"></path></g><g transform="translate(932 371.9925860153511) rotate(0 41.5 13)"><text x="0" y="18" font-family="Virgil, Segoe UI Emoji" font-size="20px" fill="#000000" text-anchor="start" style="white-space: pre;" direction="ltr">Command</text></g><g stroke-linecap="round"><g transform="translate(765.4457566018457 523.9925860153511) rotate(0 66.09020150175479 -52.84175243214176)"><path d="M0.3 1.17 C22.35 -16.56, 111.35 -88.9, 133.18 -106.86 M-1 0.74 C20.91 -16.8, 110.37 -87.99, 132.84 -105.68" stroke="#000000" stroke-width="1" fill="none"></path></g><g transform="translate(765.4457566018457 523.9925860153511) rotate(0 66.09020150175479 -52.84175243214176)"><path d="M119.07 -78.21 C121.96 -90.95, 128.38 -100.65, 131.93 -106.67 M116.96 -80.42 C120.84 -85.55, 125.25 -93.88, 132.4 -105.4" stroke="#000000" stroke-width="1" fill="none"></path></g><g transform="translate(765.4457566018457 523.9925860153511) rotate(0 66.09020150175479 -52.84175243214176)"><path d="M106.33 -94.3 C113.92 -101.04, 125.11 -104.72, 131.93 -106.67 M104.21 -96.5 C111.38 -97.54, 119 -101.81, 132.4 -105.4" stroke="#000000" stroke-width="1" fill="none"></path></g></g><g stroke-linecap="round"><g transform="translate(812 375.78676143778387) rotate(0 42.25620420248242 3.477117479101693)"><path d="M0.27 0.53 C14.64 1.64, 71.28 5.06, 85.57 6.09 M-1.05 -0.24 C13.27 1.06, 70.45 5.84, 84.92 7.2" stroke="#000000" stroke-width="1" fill="none"></path></g><g transform="translate(812 375.78676143778387) rotate(0 42.25620420248242 3.477117479101693)"><path d="M56.81 15.89 C61.71 14.61, 69.78 9.81, 85.06 6.26 M56.43 15 C63.47 13.52, 69.34 11.86, 85.56 7.01" stroke="#000000" stroke-width="1" fill="none"></path></g><g transform="translate(812 375.78676143778387) rotate(0 42.25620420248242 3.477117479101693)"><path d="M58.61 -4.55 C62.96 -0.83, 70.6 -0.63, 85.06 6.26 M58.23 -5.44 C65 -1.98, 70.44 1.31, 85.56 7.01" stroke="#000000" stroke-width="1" fill="none"></path></g></g><g stroke-linecap="round" transform="translate(912 517.9925860153511) rotate(0 95.5 24)"><path d="M-1.92 -1.09 C45.14 2.93, 93.93 1.41, 189.08 -0.36 M0.2 0.82 C70.13 0.38, 140.55 0.82, 190.97 0.79 M189.93 0.95 C193.18 12.8, 192.59 22.25, 189.49 49.7 M190.09 0.29 C190.35 12.62, 190.91 22.99, 190.82 47.38 M191.7 47.45 C145.19 47.56, 99.52 50.51, -1.28 49.56 M190.45 48.28 C136.71 48.37, 83.46 47.49, -0.47 47.6 M-0.7 46.32 C1.45 35.25, -0.45 22.6, -0.55 0.55 M-0.63 47.1 C-0.43 33.83, -0.63 20.75, 0.77 0.36" stroke="#000000" stroke-width="1" fill="none"></path></g><g transform="translate(923 528.9925860153511) rotate(0 82.5 13)"><text x="0" y="18" font-family="Virgil, Segoe UI Emoji" font-size="20px" fill="#000000" text-anchor="start" style="white-space: pre;" direction="ltr">RequestObserver</text></g><g stroke-linecap="round"><g transform="translate(782 548.048853868681) rotate(0 62.803288147347075 -3.002095447636748)"><path d="M0.92 0.05 C21.79 -0.6, 104.87 -3.6, 125.67 -4.5 M-0.06 -0.97 C20.6 -1.88, 103.82 -5.57, 124.63 -6.05" stroke="#000000" stroke-width="1" fill="none"></path></g><g transform="translate(782 548.048853868681) rotate(0 62.803288147347075 -3.002095447636748)"><path d="M96.9 4.92 C108.02 0.93, 115.95 -4.26, 125.36 -7.93 M97.26 5.43 C105.13 1.74, 112.94 -0.99, 125.46 -6.91" stroke="#000000" stroke-width="1" fill="none"></path></g><g transform="translate(782 548.048853868681) rotate(0 62.803288147347075 -3.002095447636748)"><path d="M96.18 -15.59 C107.44 -12.69, 115.61 -11, 125.36 -7.93 M96.54 -15.08 C104.53 -12.91, 112.55 -9.78, 125.46 -6.91" stroke="#000000" stroke-width="1" fill="none"></path></g></g><g stroke-linecap="round"><g transform="translate(127 645.9925860153511) rotate(0 787.6227536922277 -233.49393705107275)"><path d="M1.11 0.01 C41.09 -0.9, 193.5 31.02, 240.43 -4.7 C287.35 -40.41, 220.46 -135.5, 282.67 -214.3 C344.89 -293.11, 404.19 -413.86, 613.71 -477.51 C823.24 -541.16, 1423.39 -592.9, 1539.82 -596.22 C1656.25 -599.53, 1459.63 -518.27, 1312.3 -497.38 C1164.98 -476.49, 818.82 -518.18, 655.88 -470.86 C492.95 -423.55, 394.35 -291.98, 334.7 -213.52 C275.06 -135.06, 264.95 -43, 298.01 -0.11 C331.07 42.78, 488.8 22.38, 533.06 43.82 C577.31 65.26, 558.4 114.28, 563.53 128.54 M0.23 -1.03 C40.04 -2.38, 192.78 28.7, 239.7 -6.66 C286.62 -42.01, 219.3 -134.81, 281.74 -213.15 C344.18 -291.48, 404.82 -412.82, 614.33 -476.67 C823.85 -540.53, 1422.37 -592.62, 1538.85 -596.27 C1655.32 -599.92, 1460.31 -519.34, 1313.18 -498.59 C1166.05 -477.84, 819.3 -519.2, 656.07 -471.75 C492.84 -424.29, 393.73 -292.33, 333.78 -213.87 C273.83 -135.42, 263.53 -43.96, 296.35 -1.02 C329.17 41.93, 486.09 22.08, 530.72 43.8 C575.35 65.51, 558.78 115.06, 564.13 129.28" stroke="#c92a2a" stroke-width="1" fill="none"></path></g><g transform="translate(127 645.9925860153511) rotate(0 787.6227536922277 -233.49393705107275)"><path d="M552.35 102.41 C557.1 110.6, 560.17 121.88, 563.28 130.86 M551.6 102.44 C554.97 108.05, 557.53 115.16, 565.01 129.96" stroke="#c92a2a" stroke-width="1" fill="none"></path></g><g transform="translate(127 645.9925860153511) rotate(0 787.6227536922277 -233.49393705107275)"><path d="M572.84 101.27 C570.5 110.05, 566.48 121.72, 563.28 130.86 M572.09 101.3 C570.74 107.12, 568.59 114.49, 565.01 129.96" stroke="#c92a2a" stroke-width="1" fill="none"></path></g></g><g stroke-linecap="round"><g transform="translate(986 660.9925860153511) rotate(0 248.02310370149598 -141.32325625516415)"><path d="M0.72 -1.07 C-30.62 3.96, -152.61 9.5, -187.64 29.98 C-222.67 50.47, -200.2 107.68, -209.44 121.86 C-218.69 136.05, -239.4 133.68, -243.11 115.08 C-246.82 96.49, -270.92 32.8, -231.69 10.29 C-192.47 -12.22, -7.25 -2.81, -7.78 -20 C-8.3 -37.19, -187.37 -53.82, -234.84 -92.85 C-282.31 -131.88, -318.22 -222.52, -292.6 -254.19 C-266.98 -285.87, -130.23 -274.77, -81.12 -282.87 C-32.02 -290.98, -18.55 -287.68, 2.02 -302.81 C22.58 -317.95, 8.59 -355.31, 42.25 -373.7 C75.92 -392.09, 84.97 -412.86, 204.02 -413.17 C323.07 -413.48, 671.32 -417.4, 756.54 -375.56 C841.77 -333.73, 772.4 -186.9, 715.36 -162.15 C658.32 -137.4, 507.39 -191.26, 414.3 -227.06 C321.21 -262.85, 221.49 -366.82, 156.82 -376.92 C92.14 -387.02, 65.13 -307.22, 26.27 -287.66 C-12.59 -268.1, -43.59 -264.07, -76.34 -259.56 C-109.08 -255.04, -134.91 -265.07, -170.18 -260.58 C-205.45 -256.08, -279.62 -254.34, -287.97 -232.6 C-296.32 -210.86, -254.63 -147.33, -220.27 -130.13 C-185.91 -112.94, -104.78 -129.27, -81.8 -129.44 M-0.37 0.98 C-31.86 5.72, -153.39 8.55, -188.4 28.38 C-223.41 48.21, -201.35 105.42, -210.44 119.98 C-219.52 134.53, -239.16 133.9, -242.92 115.7 C-246.68 97.51, -272.36 33.53, -233 10.83 C-193.64 -11.87, -6.59 -3.02, -6.77 -20.51 C-6.96 -38, -186.87 -55.62, -234.12 -94.12 C-281.37 -132.62, -316.02 -219.91, -290.28 -251.5 C-264.55 -283.09, -128.05 -275.01, -79.72 -283.67 C-31.4 -292.32, -20.73 -288.63, -0.34 -303.43 C20.04 -318.23, 8.69 -354.2, 42.58 -372.49 C76.46 -390.79, 83.91 -412.55, 202.95 -413.19 C321.99 -413.82, 670.97 -418.09, 756.8 -376.29 C842.62 -334.49, 775 -187.7, 717.91 -162.39 C660.82 -137.08, 508.12 -188.83, 414.24 -224.44 C320.37 -260.04, 219.48 -365.08, 154.65 -376.04 C89.83 -387, 64.04 -309.62, 25.29 -290.19 C-13.45 -270.76, -45.06 -264.5, -77.8 -259.48 C-110.54 -254.47, -136.2 -264.32, -171.14 -260.1 C-206.09 -255.88, -279.08 -255.7, -287.47 -234.16 C-295.86 -212.62, -255.31 -148.14, -221.49 -130.87 C-187.67 -113.59, -107.78 -130.82, -84.55 -130.5" stroke="#364fc7" stroke-width="1" fill="none"></path></g><g transform="translate(986 660.9925860153511) rotate(0 248.02310370149598 -141.32325625516415)"><path d="M-113.47 -117.12 C-101.03 -122.85, -92.24 -126.54, -86.08 -129.99 M-111.56 -117.6 C-103.31 -123.09, -94.95 -125.29, -83.7 -130.76" stroke="#364fc7" stroke-width="1" fill="none"></path></g><g transform="translate(986 660.9925860153511) rotate(0 248.02310370149598 -141.32325625516415)"><path d="M-115.34 -137.56 C-102.32 -136.53, -92.91 -133.44, -86.08 -129.99 M-113.42 -138.04 C-104.7 -136.92, -95.74 -132.5, -83.7 -130.76" stroke="#364fc7" stroke-width="1" fill="none"></path></g></g><g transform="translate(539 686.9925860153511) rotate(0 16.5 13)"><text x="0" y="18" font-family="Virgil, Segoe UI Emoji" font-size="20px" fill="#000000" text-anchor="start" style="white-space: pre;" direction="ltr">put</text></g><g transform="translate(870.5 670.9925860153511) rotate(0 16 13)"><text x="0" y="18" font-family="Virgil, Segoe UI Emoji" font-size="20px" fill="#000000" text-anchor="start" style="white-space: pre;" direction="ltr">get</text></g><g stroke-linecap="round" transform="translate(727 125.9925860153511) rotate(0 94 25)"><path d="M-0.42 -0.75 C60.02 2.14, 119.71 -0.7, 186.81 -1.79 M0.09 0.75 C71.55 2.11, 140.47 0.95, 188.48 0.21 M189.51 1.03 C188.29 11.73, 189.41 23.23, 188.57 48.55 M187.17 0.84 C188.69 18.24, 188.8 37.16, 187.1 50.79 M186.46 50.29 C136.93 48.31, 90.58 48.43, 0.14 48.87 M187 50.06 C147.03 50.76, 106.52 52.38, 0.1 49.71 M1.05 48.27 C-0.68 32.72, 1.99 19.26, 0.6 1.27 M-0.21 50.07 C-1.24 29.82, 0.43 12.12, 0.77 -0.35" stroke="#000000" stroke-width="1" fill="none"></path></g><g transform="translate(742 139.9925860153511) rotate(0 79.5 13)"><text x="0" y="18" font-family="Virgil, Segoe UI Emoji" font-size="20px" fill="#000000" text-anchor="start" style="white-space: pre;" direction="ltr">CommandFactory</text></g><g stroke-linecap="round"><g transform="translate(490.9285170814717 371.9925860153511) rotate(0 134.5808416571623 -96.95191986374559)"><path d="M0.2 -0.02 C45.08 -32.34, 225.63 -161.9, 270.32 -193.88 M-1.16 -1.08 C43.58 -33.27, 224.65 -160.71, 269.98 -192.81" stroke="#000000" stroke-width="1" fill="none"></path></g><g transform="translate(490.9285170814717 371.9925860153511) rotate(0 134.5808416571623 -96.95191986374559)"><path d="M252.83 -166.24 C257.99 -179.03, 267.89 -185.92, 268.9 -192.29 M252.18 -168.86 C257.65 -174.28, 262.25 -181.62, 270.46 -192.82" stroke="#000000" stroke-width="1" fill="none"></path></g><g transform="translate(490.9285170814717 371.9925860153511) rotate(0 134.5808416571623 -96.95191986374559)"><path d="M240.99 -183.01 C250.72 -189.35, 265.18 -189.78, 268.9 -192.29 M240.34 -185.62 C248.89 -186.59, 256.67 -189.41, 270.46 -192.82" stroke="#000000" stroke-width="1" fill="none"></path></g></g><g stroke-linecap="round"><g transform="translate(822.7042922466392 180.62339814355744) rotate(0 63.38833100010129 84.55500582254417)"><path d="M0.56 -1.03 C21.94 27.17, 106.44 141.8, 127.38 170.14 M-0.61 1.04 C20.77 28.82, 105.9 140.25, 126.88 168.42" stroke="#000000" stroke-width="1" fill="none"></path></g><g transform="translate(822.7042922466392 180.62339814355744) rotate(0 63.38833100010129 84.55500582254417)"><path d="M99.98 153.52 C108.79 155.12, 112.56 160.94, 125.71 169.25 M102.43 152.06 C107.91 156.32, 113.73 159.94, 127.47 169.01" stroke="#000000" stroke-width="1" fill="none"></path></g><g transform="translate(822.7042922466392 180.62339814355744) rotate(0 63.38833100010129 84.55500582254417)"><path d="M116.35 141.15 C121.57 145.62, 121.64 154.23, 125.71 169.25 M118.8 139.68 C120.04 147.22, 121.74 153.96, 127.47 169.01" stroke="#000000" stroke-width="1" fill="none"></path></g></g><g transform="translate(1650 493.9925860153511) rotate(0 52.5 13)"><text x="0" y="18" font-family="Virgil, Segoe UI Emoji" font-size="20px" fill="#000000" text-anchor="start" style="white-space: pre;" direction="ltr">subprocess</text></g><g stroke-linecap="round" transform="translate(1634 487.9925860153511) rotate(0 70.5 21.5)"><path d="M0.51 -1.66 C40.62 0.92, 82.22 -0.03, 140.61 -0.66 M0.67 0.54 C45.46 -0.26, 91.39 0.51, 141.52 0.52 M139.61 -1.27 C142.01 13.38, 142.53 27.49, 142.35 44.16 M140.29 -0.3 C141.43 16.21, 141.12 33.94, 140.67 43.49 M141.27 43.33 C91.17 43.85, 46.55 44.09, -0.08 43.6 M140.2 42.25 C86.95 43.53, 34.23 42.6, 0.73 42.53 M-0.1 43.46 C0.1 26.72, -1.89 15.51, -0.12 1.02 M0.38 43.15 C1.16 32.19, -0.51 21.15, -0.43 -0.14" stroke="#000000" stroke-width="1" fill="none"></path></g><g stroke-linecap="round"><g transform="translate(1225.3206165701895 12.075045637302082) rotate(0 7.016186878271469 505.04525946099324)"><path d="M0.51 0.08 C3.03 168.51, 12.15 841.03, 14.71 1009.42 M-0.68 -0.92 C1.71 167.82, 11.04 842.75, 13.77 1011.01" stroke="#000000" stroke-width="1" fill="none"></path></g></g><g stroke-linecap="round"><g transform="translate(1237.033821509406 12.164054886810504) rotate(0 7.356751357859821 507.10479525034987)"><path d="M-0.97 0.8 C1.37 169.52, 10.88 844.01, 13.31 1012.77 M0.73 0.17 C3.52 169.01, 13.7 844.95, 15.68 1014.04" stroke="#000000" stroke-width="1" fill="none"></path></g></g><g stroke-linecap="round"><g transform="translate(1774.103091095214 350.1964948741719) rotate(0 -50.18796699362406 67.8605437074881)"><path d="M-0.27 -0.8 C-17.08 21.85, -84.77 112.36, -101.57 135.26 M1.78 1.4 C-15.05 24.26, -84.99 114.3, -102.16 136.52" stroke="#000000" stroke-width="1" fill="none"></path></g><g transform="translate(1774.103091095214 350.1964948741719) rotate(0 -50.18796699362406 67.8605437074881)"><path d="M-94.34 109.09 C-96.22 116.63, -96.1 122.82, -100.52 135.97 M-92.1 107.75 C-95.62 117.1, -98.04 125.93, -102.7 136.7" stroke="#000000" stroke-width="1" fill="none"></path></g><g transform="translate(1774.103091095214 350.1964948741719) rotate(0 -50.18796699362406 67.8605437074881)"><path d="M-78.11 121.65 C-83.77 126.18, -87.48 129.4, -100.52 135.97 M-75.88 120.31 C-84.42 125.84, -91.97 130.69, -102.7 136.7" stroke="#000000" stroke-width="1" fill="none"></path></g></g><g stroke-linecap="round"><g transform="translate(1522.5780927196756 412.9925860153511) rotate(0 54.57251192312424 34.51536367045101)"><path d="M-0.98 -0.91 C17.41 10.42, 91.56 57.18, 110.12 68.73 M0.71 1.22 C19.02 12.64, 91.31 58.62, 109.56 69.94" stroke="#000000" stroke-width="1" fill="none"></path></g><g transform="translate(1522.5780927196756 412.9925860153511) rotate(0 54.57251192312424 34.51536367045101)"><path d="M78.71 64.83 C87.57 67.33, 95.3 68.02, 107.57 69.51 M80.45 62.87 C89.59 65.66, 99.2 67.11, 108.66 70.24" stroke="#000000" stroke-width="1" fill="none"></path></g><g transform="translate(1522.5780927196756 412.9925860153511) rotate(0 54.57251192312424 34.51536367045101)"><path d="M89.64 47.46 C95.5 54.81, 100.12 60.43, 107.57 69.51 M91.38 45.5 C97.15 53.67, 103.31 60.59, 108.66 70.24" stroke="#000000" stroke-width="1" fill="none"></path></g></g><g stroke-linecap="round"><g transform="translate(1365.399239041617 450.9925860153511) rotate(0 132.2455951436806 22.829665751937114)"><path d="M0.6 0.66 C44.61 8.15, 221.11 37.16, 265.03 44.5 M-0.54 -0.04 C43.26 7.63, 220.37 38.06, 264.31 45.7" stroke="#000000" stroke-width="1" fill="none"></path></g><g transform="translate(1365.399239041617 450.9925860153511) rotate(0 132.2455951436806 22.829665751937114)"><path d="M235.88 51.73 C244.97 48.08, 256.57 46.47, 262.89 46.86 M234.41 50.61 C242.41 49.07, 249.12 47.57, 264.09 44.76" stroke="#000000" stroke-width="1" fill="none"></path></g><g transform="translate(1365.399239041617 450.9925860153511) rotate(0 132.2455951436806 22.829665751937114)"><path d="M239.37 31.51 C247.06 35.57, 257.33 41.66, 262.89 46.86 M237.9 30.38 C245.14 33.55, 251.04 36.74, 264.09 44.76" stroke="#000000" stroke-width="1" fill="none"></path></g></g><g stroke-linecap="round"><g transform="translate(1643.7426030918398 316.4977193463486) rotate(0 -227.97200925759967 -29.79139345860102)"><path d="M-0.3 0.3 C-76.58 -9.62, -381.8 -49.79, -457.69 -59.88 M1.74 -0.59 C-74.17 -10.25, -379.23 -48.53, -455.48 -58.27" stroke="#000000" stroke-width="1" fill="none"></path></g><g transform="translate(1643.7426030918398 316.4977193463486) rotate(0 -227.97200925759967 -29.79139345860102)"><path d="M-425.73 -66.53 C-434.77 -61.15, -444.13 -62.79, -453.86 -57.83 M-425.87 -65.27 C-431.79 -62.56, -439.14 -62.02, -454.63 -59.25" stroke="#000000" stroke-width="1" fill="none"></path></g><g transform="translate(1643.7426030918398 316.4977193463486) rotate(0 -227.97200925759967 -29.79139345860102)"><path d="M-428.3 -46.18 C-436.51 -46.87, -445.1 -54.6, -453.86 -57.83 M-428.44 -44.91 C-433.95 -46.8, -440.72 -50.85, -454.63 -59.25" stroke="#000000" stroke-width="1" fill="none"></path></g></g><g stroke-linecap="round"><g transform="translate(1441 391.9073505406589) rotate(0 -126.15205933731056 -58.26109539956805)"><path d="M0.55 -0.32 C-41.59 -19.54, -210.92 -95.24, -252.85 -114.4 M-0.62 -1.54 C-42.39 -21.19, -208.84 -97.44, -250.63 -116.2" stroke="#000000" stroke-width="1" fill="none"></path></g><g transform="translate(1441 391.9073505406589) rotate(0 -126.15205933731056 -58.26109539956805)"><path d="M-221.25 -115.42 C-228.64 -112.95, -239 -113.64, -251.21 -114.22 M-220.15 -113.34 C-231.93 -114.47, -242.97 -115.47, -250.28 -115.65" stroke="#000000" stroke-width="1" fill="none"></path></g><g transform="translate(1441 391.9073505406589) rotate(0 -126.15205933731056 -58.26109539956805)"><path d="M-229.74 -96.74 C-234.75 -99.87, -242.58 -106.12, -251.21 -114.22 M-228.64 -94.66 C-237.44 -102.66, -245.33 -110.59, -250.28 -115.65" stroke="#000000" stroke-width="1" fill="none"></path></g></g><g stroke-linecap="round"><g transform="translate(1279 430.9925860153511) rotate(0 -47.0271280380432 -64.39485092442482)"><path d="M-0.72 -0.28 C-16.41 -21.58, -78.7 -107.17, -94.51 -128.51 M1.11 -1.48 C-14.67 -22.53, -78.87 -106.18, -95.16 -127.1" stroke="#000000" stroke-width="1" fill="none"></path></g><g transform="translate(1279 430.9925860153511) rotate(0 -47.0271280380432 -64.39485092442482)"><path d="M-70.28 -110.11 C-77.01 -116.45, -83.54 -119.16, -96.86 -126.02 M-69.36 -110.74 C-78.27 -117.52, -86.05 -121.85, -95.05 -127.53" stroke="#000000" stroke-width="1" fill="none"></path></g><g transform="translate(1279 430.9925860153511) rotate(0 -47.0271280380432 -64.39485092442482)"><path d="M-86.53 -97.57 C-88.78 -107.21, -90.9 -113.32, -96.86 -126.02 M-85.6 -98.2 C-89.03 -109.03, -91.41 -117.53, -95.05 -127.53" stroke="#000000" stroke-width="1" fill="none"></path></g></g><g transform="translate(1141 327.9925860153511) rotate(0 29.5 13)"><text x="0" y="18" font-family="Virgil, Segoe UI Emoji" font-size="20px" fill="#000000" text-anchor="start" style="white-space: pre;" direction="ltr">inherit</text></g><g transform="translate(1287.5 131.4925860153511) rotate(0 106.5 13)"><text x="0" y="18" font-family="Virgil, Segoe UI Emoji" font-size="20px" fill="#000000" text-anchor="start" style="white-space: pre;" direction="ltr">ProvdCommandFactory</text></g><g stroke-linecap="round" transform="translate(1273.5 123.4925860153511) rotate(0 120 19)"><path d="M0.53 -0.76 C67.66 -1.72, 136.12 -0.79, 238.58 1.48 M-0.33 0.66 C87.53 0.14, 175.06 0.76, 239.84 -0.81 M240.18 -1.64 C241.11 11.23, 240.79 20.45, 238.53 37.46 M239.23 -0.21 C239.99 9.12, 239.92 18.23, 239.04 38.55 M241.33 37.06 C168.95 38.1, 95.93 39.75, 1.25 37.82 M240.08 38.65 C187.84 36.72, 135.94 35.27, -0.69 37.98 M-1.97 39.54 C0.58 25.14, -1.51 15.23, 0.01 0.32 M-0.91 38.85 C-0.01 25.01, -0.28 12.41, -0.9 -0.95" stroke="#000000" stroke-width="1" fill="none"></path></g><g transform="translate(1471.5 87.4925860153511) rotate(0 112.5 13)"><text x="0" y="18" font-family="Virgil, Segoe UI Emoji" font-size="20px" fill="#000000" text-anchor="start" style="white-space: pre;" direction="ltr">AgentdCommandFactory</text></g><g stroke-linecap="round" transform="translate(1466.5 81.4925860153511) rotate(0 122.5 18)"><path d="M-1.09 -0.77 C83.58 1.07, 168.52 2.38, 246.07 -1.02 M-0.07 -0.44 C66.26 -1.41, 132.6 -2.39, 244.93 -0.65 M246.41 0.17 C246.12 8.24, 243.56 19.28, 243.79 36.94 M244.82 0.02 C244.47 11.12, 243.76 22.75, 245.02 36.52 M246.42 35.95 C170.59 36.45, 95.64 34.67, -1.35 36.33 M245.27 36.61 C195.62 36.74, 143.95 37.55, 0 36.16 M0.65 34.52 C-1.08 24.68, 0.37 13.7, 0.65 0.99 M0.18 35.66 C0.23 26.75, -0.58 17.16, -0.93 0.83" stroke="#000000" stroke-width="1" fill="none"></path></g><g transform="translate(1596.5 39.492586015351094) rotate(0 119 13)"><text x="0" y="18" font-family="Virgil, Segoe UI Emoji" font-size="20px" fill="#000000" text-anchor="start" style="white-space: pre;" direction="ltr">AsteriskCommandFactory</text></g><g stroke-linecap="round" transform="translate(1588.5 30.492586015351094) rotate(0 129 20)"><path d="M-1.35 0.14 C64.27 2.4, 132.32 -0.02, 257.53 -0.64 M-0.12 0.17 C97.52 0.31, 195.29 0.46, 257.8 0.07 M259.09 -1.67 C256.81 8.19, 257.07 18.39, 258.17 38.47 M257.74 0.02 C256.97 11.71, 257.95 22.84, 258.07 40.8 M258.87 41.55 C196.4 39.76, 131.07 40.26, -1.53 40.16 M258.78 39.2 C159.94 41.52, 63.2 41.7, 0.11 39.21 M-1.44 39.99 C-0.12 25.24, 0.52 10.83, -1.03 -1.82 M-0.09 39.69 C-0.98 23.64, -1.01 10.01, 0.38 0.85" stroke="#000000" stroke-width="1" fill="none"></path></g><g stroke-linecap="round"><g transform="translate(1587 64.94096074725152) rotate(0 -338.45851536233 33.585242075163265)"><path d="M-0.6 0.61 C-113.68 11.88, -564.59 56.48, -677.52 67.29 M1.29 -0.12 C-111.99 10.89, -564.82 54.71, -678.21 65.79" stroke="#000000" stroke-width="1" fill="none"></path></g><g transform="translate(1587 64.94096074725152) rotate(0 -338.45851536233 33.585242075163265)"><path d="M-650.13 53.69 C-659.48 57.38, -672.87 62.19, -676.66 64.88 M-651.45 53.62 C-658.98 57.7, -668.65 61.84, -678.2 65.41" stroke="#000000" stroke-width="1" fill="none"></path></g><g transform="translate(1587 64.94096074725152) rotate(0 -338.45851536233 33.585242075163265)"><path d="M-648.14 74.11 C-658.19 70.03, -672.33 67.06, -676.66 64.88 M-649.47 74.05 C-657.73 71.47, -668.05 68.95, -678.2 65.41" stroke="#000000" stroke-width="1" fill="none"></path></g></g><g stroke-linecap="round"><g transform="translate(1464 110.42596878903151) rotate(0 -276.43374777004124 18.769010365849212)"><path d="M-0.16 -0.93 C-92.14 5.32, -459.77 31.91, -551.84 38.46 M-1.7 1.2 C-93.82 7, -460.71 30.71, -552.71 36.55" stroke="#000000" stroke-width="1" fill="none"></path></g><g transform="translate(1464 110.42596878903151) rotate(0 -276.43374777004124 18.769010365849212)"><path d="M-526.78 24.77 C-532.77 27.11, -541.15 32.24, -550.78 36.41 M-525.17 24.27 C-533.06 26.97, -539.53 30.44, -553.08 37.46" stroke="#000000" stroke-width="1" fill="none"></path></g><g transform="translate(1464 110.42596878903151) rotate(0 -276.43374777004124 18.769010365849212)"><path d="M-525.46 45.25 C-532.01 41.41, -540.8 40.35, -550.78 36.41 M-523.85 44.75 C-532.12 41.93, -538.95 39.89, -553.08 37.46" stroke="#000000" stroke-width="1" fill="none"></path></g></g><g stroke-linecap="round"><g transform="translate(1268 150.51421695580666) rotate(0 -172.43338947139682 2.697655010330614)"><path d="M-0.99 0.04 C-58.24 0.86, -287.03 4.16, -344.4 4.74 M0.68 -0.98 C-56.67 0.06, -288.28 5.49, -345.55 6.37" stroke="#000000" stroke-width="1" fill="none"></path></g><g transform="translate(1268 150.51421695580666) rotate(0 -172.43338947139682 2.697655010330614)"><path d="M-317.5 -5.11 C-323.49 -4.25, -331.7 -0.13, -345.88 4.45 M-318.35 -3.83 C-328.04 0.67, -337.91 4.27, -345.09 6.37" stroke="#000000" stroke-width="1" fill="none"></path></g><g transform="translate(1268 150.51421695580666) rotate(0 -172.43338947139682 2.697655010330614)"><path d="M-317.09 15.41 C-323.15 11.71, -331.46 11.28, -345.88 4.45 M-317.94 16.68 C-327.8 13.67, -337.82 9.74, -345.09 6.37" stroke="#000000" stroke-width="1" fill="none"></path></g></g><g transform="translate(973.5 114.9925860153511) rotate(0 29.5 13)"><text x="0" y="18" font-family="Virgil, Segoe UI Emoji" font-size="20px" fill="#000000" text-anchor="start" style="white-space: pre;" direction="ltr">inherit</text></g><g transform="translate(498 506.9925860153511) rotate(0 59.5 13)"><text x="0" y="18" font-family="Virgil, Segoe UI Emoji" font-size="20px" fill="#000000" text-anchor="start" style="white-space: pre;" direction="ltr">instanciates</text></g><g transform="translate(765.5 260.9925860153511) rotate(0 59.5 13)"><text x="0" y="18" font-family="Virgil, Segoe UI Emoji" font-size="20px" fill="#000000" text-anchor="start" style="white-space: pre;" direction="ltr">instanciates</text></g><g transform="translate(834.5 459.9925860153511) rotate(0 59.5 13)"><text x="0" y="18" font-family="Virgil, Segoe UI Emoji" font-size="20px" fill="#000000" text-anchor="start" style="white-space: pre;" direction="ltr">composed of</text></g><g transform="translate(1004 259.9925860153511) rotate(0 85.5 13)"><text x="0" y="18" font-family="Virgil, Segoe UI Emoji" font-size="20px" fill="#000000" text-anchor="start" style="white-space: pre;" direction="ltr">CommandExecutor</text></g><g stroke-linecap="round" transform="translate(994 244.9925860153511) rotate(0 93.5 25.5)"><path d="M1.72 -0.78 C41.05 -0.22, 86.33 0.35, 188.45 0.68 M-0.58 0.54 C47.09 0.67, 91.96 -0.27, 187.82 0.84 M187.73 0.89 C186.24 10.81, 186.01 21.16, 186.04 51.08 M186.65 -0.44 C187.68 18.21, 186.89 34.2, 187.05 51.62 M186.55 50.58 C140.81 47.82, 94.31 48.78, -0.74 52.5 M187.26 51.94 C146.87 50.54, 105.11 52.23, 0.6 50.78 M-1.6 49.72 C1.72 36.27, 1.06 19.19, -1.45 1.37 M-0.93 50.6 C-0.59 38.18, -0.54 24.65, 0.65 -0.47" stroke="#000000" stroke-width="1" fill="none"></path></g><g stroke-linecap="round"><g transform="translate(877.8008369718555 183.9925860153511) rotate(0 55.66449898980238 37.17079229494803)"><path d="M1.03 0.71 C19.72 12.92, 92.9 60.71, 111.21 72.84 M0.12 0.03 C18.72 12.48, 91.95 62.41, 110.27 74.31" stroke="#000000" stroke-width="1" fill="none"></path></g><g transform="translate(877.8008369718555 183.9925860153511) rotate(0 55.66449898980238 37.17079229494803)"><path d="M82.31 67.21 C87.46 68.1, 95.12 71.29, 108.45 73.95 M81.1 66.97 C91.56 69.41, 101.96 72.6, 110.96 75.3" stroke="#000000" stroke-width="1" fill="none"></path></g><g transform="translate(877.8008369718555 183.9925860153511) rotate(0 55.66449898980238 37.17079229494803)"><path d="M93.7 50.14 C96.22 54.98, 101.31 62.02, 108.45 73.95 M92.49 49.91 C99.18 58.13, 105.69 67.16, 110.96 75.3" stroke="#000000" stroke-width="1" fill="none"></path></g></g><g stroke-linecap="round"><g transform="translate(1019.1958199417393 353.9925860153511) rotate(0 6.89270038187351 -25.744148526713253)"><path d="M1.17 0.46 C3.58 -8.29, 11.64 -43.19, 13.47 -51.95 M0.32 -0.34 C2.71 -8.94, 10.4 -41.97, 12.78 -50.38" stroke="#000000" stroke-width="1" fill="none"></path></g><g transform="translate(1019.1958199417393 353.9925860153511) rotate(0 6.89270038187351 -25.744148526713253)"><path d="M16.21 -22.91 C14.83 -30.85, 13.99 -33.78, 11.62 -49.13 M16.23 -23.82 C13.64 -33.92, 13.3 -44.68, 13.35 -50.2" stroke="#000000" stroke-width="1" fill="none"></path></g><g transform="translate(1019.1958199417393 353.9925860153511) rotate(0 6.89270038187351 -25.744148526713253)"><path d="M-1.55 -27.43 C0.88 -34.58, 3.84 -36.54, 11.62 -49.13 M-1.53 -28.34 C2.73 -36.7, 9.19 -45.73, 13.35 -50.2" stroke="#000000" stroke-width="1" fill="none"></path></g></g><g transform="translate(1272 415.9925860153511) rotate(0 113 13)"><text x="0" y="18" font-family="Virgil, Segoe UI Emoji" font-size="20px" fill="#000000" text-anchor="start" style="white-space: pre;" direction="ltr">ProvdCommandExecutor</text></g><g stroke-linecap="round" transform="translate(1269 406.9925860153511) rotate(0 120.5 22)"><path d="M0.21 1.41 C64.19 -0.33, 126.4 1.29, 240.59 -0.87 M0.48 0.38 C92.86 1.23, 186.71 0.64, 241.28 0.7 M242.7 -0.95 C241.69 9.24, 239.65 20.32, 241.35 44.21 M241.73 -0.31 C240.7 11.62, 240.04 25.49, 240.36 43.09 M239.97 45.04 C188.94 44.63, 139.03 43.57, -1.48 42.5 M241.06 43.4 C154.26 42.32, 67.98 42.2, -0.43 43.17 M-1.52 42.37 C-0.82 27.28, 1.52 11.85, -0.61 1.03 M-0.71 44.55 C0.12 28.63, -1 14.29, 0.22 -0.29" stroke="#000000" stroke-width="1" fill="none"></path></g><g transform="translate(1442 368.9925860153511) rotate(0 118.5 13)"><text x="0" y="18" font-family="Virgil, Segoe UI Emoji" font-size="20px" fill="#000000" text-anchor="start" style="white-space: pre;" direction="ltr">AgentdCommandExecutor</text></g><g stroke-linecap="round" transform="translate(1432 357.9925860153511) rotate(0 128 23.5)"><path d="M1.22 0.78 C68.19 -0.78, 134.21 0.64, 257.26 -0.09 M-0.14 0.18 C62.94 1.5, 126.24 2.01, 255.56 0.04 M254.44 -1.24 C254.68 9.94, 255.9 21.05, 257.89 45.76 M256.39 0.44 C255.7 10.39, 256.7 19.77, 255.56 47.32 M255.58 48.39 C179.07 46.06, 100.96 44.9, -0.57 46.95 M255.3 46.92 C178.22 47.98, 98.09 46.98, 0.76 46.95 M-0.42 47.31 C-2.05 38.76, -1.92 28.12, -0.52 1.41 M0.75 46.76 C-0.32 32.15, 0.13 16.56, -0.28 0.21" stroke="#000000" stroke-width="1" fill="none"></path></g><g transform="translate(1661 305.9925860153511) rotate(0 125.5 13)"><text x="0" y="18" font-family="Virgil, Segoe UI Emoji" font-size="20px" fill="#000000" text-anchor="start" style="white-space: pre;" direction="ltr">AsteriskCommandExecutor</text></g><g stroke-linecap="round" transform="translate(1655 300.9925860153511) rotate(0 129 19)"><path d="M1.13 0.55 C56.95 0.46, 112.89 0.14, 258.01 1.37 M0.17 0.65 C88.95 1.37, 177.9 0.11, 258.67 0.05 M256.67 -1.32 C259.17 12.27, 258.38 27.34, 259.23 36.16 M258.04 0.77 C257.96 13.59, 257.99 26.72, 257.61 37.61 M257.2 38.57 C157.19 37.64, 56.63 36.32, 0.74 37.96 M257.4 37.47 C180.78 37.32, 103.9 38.54, 0.52 38.13 M1.56 37.89 C0.02 26.5, 1.05 16.33, 0.06 0.65 M-0.93 37.49 C-0.82 25.04, 1.08 10.07, 0.24 -0.26" stroke="#000000" stroke-width="1" fill="none"></path></g><g stroke-linecap="round"><g transform="translate(1390 171.9925860153511) rotate(0 -16.698667515181 116.19581289272755)"><path d="M-0.15 -1.08 C-5.4 37.96, -27.13 194.47, -32.41 233.47 M-1.68 0.96 C-7 39.74, -28.16 192.84, -33.25 231.74" stroke="#000000" stroke-width="1" fill="none"></path></g><g transform="translate(1390 171.9925860153511) rotate(0 -16.698667515181 116.19581289272755)"><path d="M-41.45 202.78 C-37.17 210.35, -36.64 215.33, -31.83 229.74 M-40.03 203.09 C-37.34 213.53, -34.5 225.17, -33.52 230.84" stroke="#000000" stroke-width="1" fill="none"></path></g><g transform="translate(1390 171.9925860153511) rotate(0 -16.698667515181 116.19581289272755)"><path d="M-21.12 205.53 C-21.4 212.45, -25.47 216.81, -31.83 229.74 M-19.69 205.83 C-24.69 215.27, -29.54 225.87, -33.52 230.84" stroke="#000000" stroke-width="1" fill="none"></path></g></g><g stroke-linecap="round"><g transform="translate(1595.4853104160393 120.9925860153511) rotate(0 -3.5870994961775295 116.39193456582726)"><path d="M-0.87 0.41 C-2.26 39.09, -7.09 193.25, -8.05 231.78 M0.88 -0.42 C-0.17 38.48, -4.53 194.35, -5.87 233.2" stroke="#000000" stroke-width="1" fill="none"></path></g><g transform="translate(1595.4853104160393 120.9925860153511) rotate(0 -3.5870994961775295 116.39193456582726)"><path d="M-14.57 203.03 C-12.66 214.72, -9.91 224.09, -5.7 234.68 M-15.16 204.56 C-12.25 215.09, -8.04 225.4, -5.23 234.04" stroke="#000000" stroke-width="1" fill="none"></path></g><g transform="translate(1595.4853104160393 120.9925860153511) rotate(0 -3.5870994961775295 116.39193456582726)"><path d="M5.94 203.66 C1.21 215, -2.69 224.16, -5.7 234.68 M5.35 205.19 C0.7 215.55, -2.65 225.63, -5.23 234.04" stroke="#000000" stroke-width="1" fill="none"></path></g></g><g stroke-linecap="round"><g transform="translate(1808.6117165963046 74.9925860153511) rotate(0 -10.692504751934848 111.99156129978597)"><path d="M0.76 1.01 C-2.83 38.06, -17.74 184.99, -21.25 221.97 M-0.3 0.49 C-4.06 37.78, -18.77 186.74, -22.14 223.49" stroke="#000000" stroke-width="1" fill="none"></path></g><g transform="translate(1808.6117165963046 74.9925860153511) rotate(0 -10.692504751934848 111.99156129978597)"><path d="M-27.99 194.62 C-27.37 205.49, -23.44 214.68, -21.35 225.33 M-29.41 194.25 C-27.86 201.92, -25.44 209.79, -22.52 222.63" stroke="#000000" stroke-width="1" fill="none"></path></g><g transform="translate(1808.6117165963046 74.9925860153511) rotate(0 -10.692504751934848 111.99156129978597)"><path d="M-7.56 196.58 C-13.54 206.95, -16.21 215.5, -21.35 225.33 M-8.98 196.21 C-13.1 203.31, -16.33 210.63, -22.52 222.63" stroke="#000000" stroke-width="1" fill="none"></path></g></g><g transform="translate(496 1013.9925860153511) rotate(0 195 13)"><text x="0" y="18" font-family="Virgil, Segoe UI Emoji" font-size="20px" fill="#000000" text-anchor="start" style="white-space: pre;" direction="ltr">WAZO-SYSCONFD REQUEST HANDLERS</text></g><g stroke-linecap="round"><g transform="translate(527.75 1106.9925860153512) rotate(0 36.64600827485327 -1.631255505606532)"><path d="M-1.19 -0.42 C10.92 -1.02, 60 -2.53, 72.19 -2.85 M0.39 -1.68 C12.91 -2.22, 62.17 -1.84, 74.48 -1.75" stroke="#c92a2a" stroke-width="1" fill="none"></path></g></g><g transform="translate(626.75 1091.9925860153512) rotate(0 143.5 13)"><text x="0" y="18" font-family="Virgil, Segoe UI Emoji" font-size="20px" fill="#c92a2a" text-anchor="start" style="white-space: pre;" direction="ltr">Flow of control - Web thread</text></g><g stroke-linecap="round"><g transform="translate(528.75 1140.9925860153512) rotate(0 36.78069937467575 -0.8688125891238201)"><path d="M-1.19 -0.55 C10.7 -0.89, 59.95 -1.19, 72.37 -1.6 M0.39 1.77 C12.58 1.02, 62.69 -2.84, 74.75 -3.51" stroke="#364fc7" stroke-width="1" fill="none"></path></g></g><g transform="translate(627.75 1125.9925860153512) rotate(0 175.5 13)"><text x="0" y="18" font-family="Virgil, Segoe UI Emoji" font-size="20px" fill="#364fc7" text-anchor="start" style="white-space: pre;" direction="ltr">Flow of control - Processing thread</text></g><g transform="translate(921.5 192.9925860153511) rotate(0 59.5 13)"><text x="0" y="18" font-family="Virgil, Segoe UI Emoji" font-size="20px" fill="#000000" text-anchor="start" style="white-space: pre;" direction="ltr">instanciates</text></g><g transform="translate(540.5 411.9925860153511) rotate(0 59.5 13)"><text x="0" y="18" font-family="Virgil, Segoe UI Emoji" font-size="20px" fill="#000000" text-anchor="start" style="white-space: pre;" direction="ltr">instanciates</text></g><g stroke-linecap="round"><g transform="translate(529.6388888888889 1070.6314749042401) rotate(0 39.95074380382897 -0.37676270641384235)"><path d="M0 -0.08 C13.44 -0.07, 67.69 -0.64, 81.36 -0.74 M-1.46 -1.16 C11.77 -0.95, 66.61 0.16, 80.47 0.41" stroke="#000000" stroke-width="1" fill="none"></path></g><g transform="translate(529.6388888888889 1070.6314749042401) rotate(0 39.95074380382897 -0.37676270641384235)"><path d="M51.96 10.31 C61.15 7.93, 71.52 3.6, 79.2 0.16 M51.12 9.92 C60.19 6.91, 67.52 5.67, 80.76 1" stroke="#000000" stroke-width="1" fill="none"></path></g><g transform="translate(529.6388888888889 1070.6314749042401) rotate(0 39.95074380382897 -0.37676270641384235)"><path d="M52.35 -10.21 C61.28 -5.18, 71.5 -2.1, 79.2 0.16 M51.51 -10.6 C60.43 -8.09, 67.65 -3.82, 80.76 1" stroke="#000000" stroke-width="1" fill="none"></path></g></g><g transform="translate(628.3888888888889 1055.3814749042401) rotate(0 54 13)"><text x="0" y="18" font-family="Virgil, Segoe UI Emoji" font-size="20px" fill="#000000" text-anchor="start" style="white-space: pre;" direction="ltr">Dependency</text></g><g stroke-linecap="round" transform="translate(490.8888888888889 1005.6314749042401) rotate(0 205.625 20.625)"><path d="M-0.27 0.03 C104.54 -3.07, 206.4 -1.4, 411.78 0.77 M0.38 -0.36 C156.75 -1.82, 312.89 -1.1, 411.13 -0.54 M412.66 -1.04 C411.85 13.5, 411.07 27.44, 410.67 40.88 M410.85 -0.46 C410.83 10.62, 411.3 19.8, 411.77 41.69 M411.51 41.47 C299.1 39.87, 186.16 39.92, -1.09 40.47 M411.49 41.33 C257.04 42.75, 102.17 42.48, 0.12 41.7 M0.08 41.47 C-1.27 31.3, -0.57 19.18, 1.28 1.15 M-0.02 40.86 C-1.05 32.9, 0.5 22.95, -0.01 -0.66" stroke="#000000" stroke-width="1" fill="none"></path></g><g stroke-linecap="round"><g transform="translate(594.8571428571431 1168.988617761383) rotate(0 0.4592687061243055 21.872737366997455)"><path d="M0.48 -1.13 C0.22 6.26, -0.46 36.25, -0.69 43.67 M-0.73 0.89 C-0.67 8.49, 1.28 37.66, 1.65 44.88" stroke="#000000" stroke-width="1" fill="none"></path></g></g><g stroke-linecap="round"><g transform="translate(600.5714285714288 1168.988617761383) rotate(0 0.359291878072554 24.492030382217592)"><path d="M-0.59 -0.24 C-0.63 7.71, 0.77 40.43, 0.95 48.76 M1.31 -1.41 C1.09 7.27, 0.72 42.15, 0.5 50.39" stroke="#000000" stroke-width="1" fill="none"></path></g></g><g transform="translate(626.2857142857147 1164.2743320470972) rotate(0 182.5 26)"><text x="0" y="18" font-family="Virgil, Segoe UI Emoji" font-size="20px" fill="#000000" text-anchor="start" style="white-space: pre;" direction="ltr">Architecture boundary</text><text x="0" y="44" font-family="Virgil, Segoe UI Emoji" font-size="20px" fill="#000000" text-anchor="start" style="white-space: pre;" direction="ltr">Must be crossed only in one direction</text></g></svg>